<svg class="prefix__prefix__logo" xmlns="http://www.w3.org/2000/svg" viewBox="0 0 235 51" width="155" height="51" fill="evenodd"><path fill="#18BAFF" d="M8.588 34.18c-.888 0-1.524-.192-1.908-.576-.384-.408-.576-1.164-.576-2.268 0-.744.072-1.644.216-2.7.144-1.056.396-2.652.756-4.788l.576-3.492c.336-2.064.636-4.224.9-6.48.24-1.92.36-3.36.36-4.32 0-1.08-.396-1.62-1.188-1.62-.6 0-1.356.324-2.268.972-.888.624-1.848 1.632-2.88 3.024-.336.456-.708.684-1.116.684-.336 0-.636-.156-.9-.468a1.877 1.877 0 01-.36-1.116c0-.408.072-.792.216-1.152.144-.384.408-.84.792-1.368 1.176-1.608 2.484-2.844 3.924-3.708 1.44-.888 2.952-1.332 4.536-1.332 1.32 0 2.304.408 2.952 1.224.672.816 1.008 2.004 1.008 3.564 0 1.392-.192 3.408-.576 6.048 1.2-3.552 2.724-6.24 4.572-8.064 1.848-1.848 4.02-2.772 6.516-2.772 1.968 0 3.444.564 4.428 1.692 1.008 1.104 1.512 2.592 1.512 4.464 0 1.056-.156 2.34-.468 3.852l-2.196 10.296c-.24 1.2-.36 2.232-.36 3.096 0 1.008.228 1.764.684 2.268.48.504 1.14.756 1.98.756.792 0 1.56-.264 2.304-.792.768-.528 1.668-1.404 2.7-2.628.288-.336.612-.504.972-.504.312 0 .552.144.72.432.192.288.288.684.288 1.188 0 .936-.228 1.68-.684 2.232-1.248 1.512-2.484 2.616-3.708 3.312-1.224.696-2.508 1.044-3.852 1.044-2.04 0-3.636-.6-4.788-1.8-1.152-1.224-1.728-2.856-1.728-4.896 0-.792.06-1.656.18-2.592.144-.936.372-2.124.684-3.564l1.44-6.588.252-1.152c.12-.552.216-1.068.288-1.548.072-.504.108-.996.108-1.476 0-.768-.216-1.38-.648-1.836-.432-.456-1.044-.684-1.836-.684-1.44 0-2.88.768-4.32 2.304-1.44 1.536-2.772 4.02-3.996 7.452-1.224 3.408-2.184 7.776-2.88 13.104-.168 1.224-.42 2.076-.756 2.556-.312.48-.936.72-1.872.72zm41.249-8.208c.312 0 .552.144.72.432.192.288.288.684.288 1.188 0 .96-.228 1.704-.684 2.232-.888 1.08-2.148 2.076-3.78 2.988a10.337 10.337 0 01-5.184 1.368c-2.52 0-4.476-.684-5.868-2.052-1.392-1.368-2.088-3.24-2.088-5.616 0-1.656.348-3.192 1.044-4.608.696-1.44 1.656-2.58 2.88-3.42 1.248-.84 2.652-1.26 4.212-1.26 1.392 0 2.508.42 3.348 1.26.84.816 1.26 1.932 1.26 3.348 0 1.656-.6 3.084-1.8 4.284-1.176 1.176-3.18 2.112-6.012 2.808.6 1.104 1.74 1.656 3.42 1.656 1.08 0 2.304-.372 3.672-1.116a12.35 12.35 0 003.6-2.988c.288-.336.612-.504.972-.504zm-9.072-5.22c-.888 0-1.644.516-2.268 1.548-.6 1.032-.9 2.28-.9 3.744v.072c1.416-.336 2.532-.84 3.348-1.512.816-.672 1.224-1.452 1.224-2.34 0-.456-.132-.816-.396-1.08-.24-.288-.576-.432-1.008-.432zm11.864-5.904c-1.008 0-1.764-.228-2.267-.684-.505-.48-.757-1.14-.757-1.98 0-.84.325-1.536.973-2.088.671-.576 1.5-.864 2.483-.864.889 0 1.608.216 2.16.648.553.432.829 1.044.829 1.836 0 .96-.313 1.728-.936 2.304-.624.552-1.453.828-2.484.828zm-.287 19.332c-1.56 0-2.7-.552-3.42-1.656-.697-1.104-1.044-2.568-1.044-4.392 0-1.08.132-2.46.395-4.14a40.883 40.883 0 011.08-4.752c.216-.768.505-1.296.864-1.584.36-.288.937-.432 1.729-.432 1.224 0 1.836.408 1.836 1.224 0 .6-.228 1.992-.684 4.176-.576 2.64-.864 4.428-.864 5.364 0 .72.096 1.272.288 1.656.192.384.516.576.971.576.432 0 .972-.3 1.62-.9.648-.6 1.513-1.548 2.593-2.844.287-.336.611-.504.971-.504.313 0 .553.144.72.432.193.288.288.684.288 1.188 0 .96-.227 1.704-.684 2.232-2.375 2.904-4.595 4.356-6.66 4.356zm14.835-5.256c.264-.24.528-.36.792-.36.288 0 .516.168.684.504.192.312.288.696.288 1.152 0 1.008-.36 1.812-1.08 2.412-1.248 1.032-2.664 1.548-4.248 1.548-2.28 0-3.948-.948-5.004-2.844-1.056-1.92-1.584-4.416-1.584-7.488 0-2.928.372-6.264 1.116-10.008.768-3.744 1.884-6.96 3.348-9.648C62.977 1.504 64.74.16 66.78.16c1.152 0 2.052.54 2.7 1.62.672 1.056 1.008 2.58 1.008 4.572 0 2.856-.792 6.168-2.376 9.936-1.56 3.768-3.696 7.488-6.408 11.16.168.984.468 1.692.9 2.124.432.432 1.02.648 1.764.648.408 0 .864-.12 1.368-.36a5.714 5.714 0 001.44-.936zm-1.188-25.2c-.552 0-1.176.996-1.872 2.988-.696 1.992-1.308 4.464-1.836 7.416s-.816 5.784-.864 8.496c1.704-2.808 3.06-5.616 4.068-8.424 1.008-2.832 1.512-5.412 1.512-7.74 0-1.824-.336-2.736-1.008-2.736zm46.901 22.248c.312 0 .552.144.72.432.192.288.288.684.288 1.188 0 .936-.228 1.68-.684 2.232-2.376 2.904-4.908 4.356-7.596 4.356-2.328 0-4.188-.9-5.58-2.7-1.392-1.8-2.088-4.38-2.088-7.74 0-.816.036-1.632.108-2.448a50.896 50.896 0 01-5.184.648c-1.248.096-2.1.156-2.556.18-.48 2.448-1.152 5.448-2.016 9-.504 2.088-1.464 3.132-2.88 3.132-1.536 0-2.304-.696-2.304-2.088 0-.312.06-.744.18-1.296.816-3.288 1.464-6.072 1.944-8.352l-1.728.072c-.792 0-1.368-.132-1.728-.396-.36-.288-.54-.744-.54-1.368 0-.792.228-1.368.684-1.728.456-.384 1.212-.6 2.268-.648l1.908-.072c.624-3.384.936-5.964.936-7.74 0-1.128-.168-1.896-.504-2.304-.336-.408-.78-.612-1.332-.612-1.68 0-3.576 1.404-5.688 4.212-.312.408-.66.612-1.044.612-.336 0-.624-.156-.864-.468-.24-.312-.36-.708-.36-1.188 0-.744.3-1.536.9-2.376a12.8 12.8 0 013.996-3.6c1.608-.96 3.24-1.44 4.896-1.44 1.56 0 2.76.54 3.6 1.62.864 1.056 1.296 2.712 1.296 4.968 0 1.992-.288 4.692-.864 8.1l3.528-.18c1.512-.072 2.808-.192 3.888-.36.432-2.64 1.092-5.112 1.98-7.416.888-2.304 1.992-4.176 3.312-5.616 1.32-1.44 2.796-2.16 4.428-2.16 1.2 0 2.148.48 2.844 1.44.696.936 1.044 2.172 1.044 3.708 0 5.952-3.036 10.08-9.108 12.384-.072.96-.108 1.956-.108 2.988 0 2.52.312 4.308.936 5.364.624 1.056 1.5 1.584 2.628 1.584.984 0 1.884-.252 2.7-.756.816-.528 1.74-1.416 2.772-2.664.288-.336.612-.504.972-.504zM108.03 5.56c-.528 0-1.092.48-1.692 1.44-.576.96-1.128 2.268-1.656 3.924-.528 1.656-.948 3.468-1.26 5.436 1.92-.792 3.336-1.92 4.248-3.384.912-1.464 1.368-3.348 1.368-5.652 0-.552-.096-.984-.288-1.296-.192-.312-.432-.468-.72-.468zm6.626 28.62c-1.08 0-1.968-.492-2.664-1.476-.672-1.008-1.008-2.256-1.008-3.744 0-1.8.12-3.444.36-4.932.24-1.512.636-3.108 1.188-4.788.24-.72.576-1.236 1.008-1.548.432-.312 1.116-.468 2.052-.468.528 0 .888.084 1.08.252.216.168.324.42.324.756 0 .192-.132.84-.396 1.944-.24.888-.432 1.692-.576 2.412-.48 2.52-.72 4.2-.72 5.04 0 .504.06.864.18 1.08.12.192.312.288.576.288.36 0 .804-.36 1.332-1.08.552-.72 1.128-1.812 1.728-3.276.624-1.464 1.224-3.264 1.8-5.4.192-.72.48-1.236.864-1.548.408-.312 1.008-.468 1.8-.468.552 0 .936.072 1.152.216.216.12.324.36.324.72 0 .6-.3 2.244-.9 4.932-.672 3.072-1.008 4.968-1.008 5.688 0 .456.096.816.288 1.08.192.24.444.36.756.36.48 0 1.044-.288 1.692-.864.672-.6 1.56-1.56 2.664-2.88.288-.336.612-.504.972-.504.312 0 .552.144.72.432.192.288.288.684.288 1.188 0 .96-.228 1.704-.684 2.232-1.032 1.272-2.148 2.316-3.348 3.132-1.176.816-2.52 1.224-4.032 1.224-1.152 0-2.004-.444-2.556-1.332-.528-.888-.792-2.136-.792-3.744-.408 1.632-1.02 2.892-1.836 3.78-.816.864-1.692 1.296-2.628 1.296zm15.513 0c-.912 0-1.56-.48-1.944-1.44-.36-.96-.54-2.496-.54-4.608 0-3.12.444-6.084 1.332-8.892.216-.696.564-1.2 1.044-1.512.504-.336 1.2-.504 2.088-.504.48 0 .816.06 1.008.18.192.12.288.348.288.684 0 .384-.18 1.248-.54 2.592-.24.96-.432 1.8-.576 2.52-.144.696-.264 1.572-.36 2.628.648-1.872 1.416-3.456 2.304-4.752.912-1.296 1.836-2.256 2.772-2.88.96-.648 1.86-.972 2.7-.972.84 0 1.428.192 1.764.576.36.384.54.972.54 1.764 0 .768-.228 2.16-.684 4.176a40.652 40.652 0 00-.396 1.944c1.2-2.952 2.532-5.1 3.996-6.444 1.464-1.344 2.832-2.016 4.104-2.016 1.56 0 2.34.78 2.34 2.34 0 .936-.264 2.628-.792 5.076-.456 2.088-.684 3.468-.684 4.14 0 .96.348 1.44 1.044 1.44.48 0 1.044-.288 1.692-.864.672-.6 1.56-1.56 2.664-2.88.288-.336.612-.504.972-.504.312 0 .552.144.72.432.192.288.288.684.288 1.188 0 .96-.228 1.704-.684 2.232-1.032 1.272-2.148 2.316-3.348 3.132-1.176.816-2.52 1.224-4.032 1.224-1.224 0-2.148-.348-2.772-1.044-.624-.72-.936-1.752-.936-3.096 0-.672.168-1.872.504-3.6.312-1.512.468-2.556.468-3.132 0-.384-.132-.576-.396-.576-.312 0-.756.408-1.332 1.224-.576.792-1.152 1.848-1.728 3.168a25.859 25.859 0 00-1.404 4.176c-.264 1.152-.576 1.92-.936 2.304-.336.384-.888.576-1.656.576-.792 0-1.392-.372-1.8-1.116-.384-.768-.576-1.692-.576-2.772 0-.912.12-2.232.36-3.96.192-1.536.288-2.544.288-3.024 0-.384-.132-.576-.396-.576-.36 0-.816.432-1.368 1.296-.552.864-1.092 1.968-1.62 3.312a33.853 33.853 0 00-1.224 3.96c-.264 1.128-.576 1.896-.936 2.304-.336.384-.876.576-1.62.576zm43.457-8.208c.312 0 .552.144.72.432.192.288.288.684.288 1.188 0 .96-.228 1.704-.684 2.232-1.032 1.272-2.148 2.316-3.348 3.132-1.176.816-2.52 1.224-4.032 1.224-1.272 0-2.304-.456-3.096-1.368-1.368.888-2.796 1.344-4.284 1.368-.312 4.632-1.02 8.496-2.124 11.592-1.104 3.12-2.724 4.68-4.86 4.68-1.296 0-2.256-.468-2.88-1.404-.624-.936-.936-2.232-.936-3.888 0-2.352.54-5.1 1.62-8.244 1.08-3.12 2.748-6.564 5.004-10.332 0-3.504-.024-5.94-.072-7.308-.024-.696.252-1.248.828-1.656.576-.408 1.296-.612 2.16-.612.504 0 .864.108 1.08.324.24.192.372.588.396 1.188 0 .6.012 1.044.036 1.332.768-.96 1.524-1.644 2.268-2.052a4.656 4.656 0 012.376-.648c1.344 0 2.436.54 3.276 1.62.864 1.08 1.296 2.496 1.296 4.248 0 1.272-.204 2.508-.612 3.708a12.111 12.111 0 01-1.692 3.276c.504.144.924.216 1.26.216.792 0 1.548-.288 2.268-.864.72-.576 1.644-1.536 2.772-2.88.288-.336.612-.504.972-.504zm-14.256 4.752c.864-.192 1.656-.66 2.376-1.404.744-.768 1.332-1.704 1.764-2.808a9.781 9.781 0 00.648-3.528c0-.72-.144-1.26-.432-1.62a1.368 1.368 0 00-1.152-.576c-.864 0-1.908.912-3.132 2.736a221.585 221.585 0 00-.036 4.644c0 1.104-.012 1.956-.036 2.556zm-6.876 16.2c.648 0 1.188-1.416 1.62-4.248.432-2.808.708-6.312.828-10.512-1.032 2.4-1.848 4.692-2.448 6.876-.6 2.184-.9 4.02-.9 5.508 0 .768.096 1.356.288 1.764.168.408.372.612.612.612zm39.22-20.952c.312 0 .552.144.72.432.192.288.288.684.288 1.188 0 .96-.228 1.704-.684 2.232-1.104 1.272-2.244 2.316-3.42 3.132-1.152.816-2.472 1.224-3.96 1.224-1.224 0-2.148-.348-2.772-1.044-.624-.72-.936-1.752-.936-3.096 0-.672.168-1.872.504-3.6.312-1.512.468-2.556.468-3.132 0-.384-.132-.576-.396-.576-.312 0-.756.408-1.332 1.224-.576.792-1.152 1.848-1.728 3.168a25.859 25.859 0 00-1.404 4.176c-.456 1.92-1.584 2.88-3.384 2.88-.72 0-1.2-.252-1.44-.756-.216-.528-.324-1.464-.324-2.808 0-.768.012-1.38.036-1.836l.036-2.88c0-3.696.372-7.548 1.116-11.556.768-4.008 1.884-7.368 3.348-10.08 1.488-2.736 3.264-4.104 5.328-4.104 1.104 0 1.992.48 2.664 1.44.696.936 1.044 2.16 1.044 3.672 0 2.424-.708 4.944-2.124 7.56-1.416 2.592-3.72 5.628-6.912 9.108a66.9 66.9 0 00-.108 3.852c.792-2.04 1.668-3.696 2.628-4.968.984-1.296 1.944-2.22 2.88-2.772.96-.552 1.836-.828 2.628-.828 1.56 0 2.34.78 2.34 2.34 0 .936-.264 2.628-.792 5.076-.456 2.088-.684 3.468-.684 4.14 0 .96.348 1.44 1.044 1.44.48 0 1.044-.288 1.692-.864.672-.6 1.56-1.56 2.664-2.88.288-.336.612-.504.972-.504zM181.022 3.724c-.432 0-.912.624-1.44 1.872-.528 1.224-1.044 2.892-1.548 5.004a69.423 69.423 0 00-1.188 6.84 25.268 25.268 0 003.672-5.724c.984-2.064 1.476-3.936 1.476-5.616 0-.768-.084-1.356-.252-1.764-.168-.408-.408-.612-.72-.612zM192.36 34.18c-.912 0-1.56-.48-1.944-1.44-.36-.96-.54-2.496-.54-4.608 0-3.12.444-6.084 1.332-8.892.216-.696.564-1.2 1.044-1.512.504-.336 1.2-.504 2.088-.504.48 0 .816.06 1.008.18.192.12.288.348.288.684 0 .384-.18 1.248-.54 2.592-.24.96-.432 1.8-.576 2.52-.144.72-.264 1.608-.36 2.664.792-2.064 1.68-3.744 2.664-5.04.984-1.296 1.944-2.22 2.88-2.772.96-.552 1.836-.828 2.628-.828 1.56 0 2.34.78 2.34 2.34 0 .312-.108 1.068-.324 2.268-.192.96-.288 1.56-.288 1.8 0 .84.3 1.26.9 1.26.672 0 1.536-.528 2.592-1.584.312-.312.636-.468.972-.468.312 0 .552.144.72.432.192.264.288.624.288 1.08 0 .888-.24 1.584-.72 2.088a9.992 9.992 0 01-2.376 1.8c-.888.48-1.836.72-2.844.72-1.272 0-2.244-.324-2.916-.972-.648-.648-.972-1.524-.972-2.628 0-.36.036-.72.108-1.08.048-.48.072-.804.072-.972 0-.384-.132-.576-.396-.576-.36 0-.84.408-1.44 1.224-.576.792-1.152 1.848-1.728 3.168a25.859 25.859 0 00-1.404 4.176c-.264 1.128-.576 1.896-.936 2.304-.336.384-.876.576-1.62.576zm29.883-8.208c.312 0 .552.144.72.432.192.288.288.684.288 1.188 0 .96-.228 1.704-.684 2.232-.888 1.08-2.148 2.076-3.78 2.988a10.337 10.337 0 01-5.184 1.368c-2.52 0-4.476-.684-5.868-2.052-1.392-1.368-2.088-3.24-2.088-5.616 0-1.656.348-3.192 1.044-4.608.696-1.44 1.656-2.58 2.88-3.42 1.248-.84 2.652-1.26 4.212-1.26 1.392 0 2.508.42 3.348 1.26.84.816 1.26 1.932 1.26 3.348 0 1.656-.6 3.084-1.8 4.284-1.176 1.176-3.18 2.112-6.012 2.808.6 1.104 1.74 1.656 3.42 1.656 1.08 0 2.304-.372 3.672-1.116a12.35 12.35 0 003.6-2.988c.288-.336.612-.504.972-.504zm-9.072-5.22c-.888 0-1.644.516-2.268 1.548-.6 1.032-.9 2.28-.9 3.744v.072c1.416-.336 2.532-.84 3.348-1.512.816-.672 1.224-1.452 1.224-2.34 0-.456-.132-.816-.396-1.08-.24-.288-.576-.432-1.008-.432zm19.749-3.528c.552 0 .936.072 1.152.216.216.144.324.384.324.72 0 .576-.312 2.628-.936 6.156a1129.42 1129.42 0 00-.972 6.012c-.888 6.168-2.112 11.052-3.672 14.652-1.56 3.6-3.636 5.4-6.228 5.4-1.224 0-2.22-.384-2.988-1.152-.768-.744-1.152-1.728-1.152-2.952 0-1.128.252-2.28.756-3.456.528-1.176 1.488-2.532 2.88-4.068 1.416-1.512 3.408-3.252 5.976-5.22l.108-.828c.168-.888.36-2.16.576-3.816-.48 1.728-1.152 3.048-2.016 3.96-.864.888-1.776 1.332-2.736 1.332-1.08 0-1.968-.492-2.664-1.476-.672-1.008-1.008-2.256-1.008-3.744 0-1.8.12-3.444.36-4.932.24-1.512.636-3.108 1.188-4.788.24-.72.576-1.236 1.008-1.548.432-.312 1.116-.468 2.052-.468.528 0 .888.084 1.08.252.216.168.324.42.324.756 0 .192-.132.84-.396 1.944-.24.888-.432 1.692-.576 2.412a80.11 80.11 0 00-.504 2.844c-.144.888-.216 1.62-.216 2.196 0 .912.252 1.368.756 1.368.36 0 .804-.36 1.332-1.08.552-.72 1.128-1.812 1.728-3.276.624-1.464 1.224-3.264 1.8-5.4.192-.72.48-1.236.864-1.548.408-.312 1.008-.468 1.8-.468zm-9.936 29.664c.6 0 1.272-.696 2.016-2.088.744-1.392 1.488-3.708 2.232-6.948-1.848 1.56-3.192 2.976-4.032 4.248-.816 1.296-1.224 2.424-1.224 3.384 0 .408.072.744.216 1.008.168.264.432.396.792.396z"/></svg>